<svg xmlns="http://www.w3.org/2000/svg" xmlns:xlink="http://www.w3.org/1999/xlink" viewBox="0 0 19.01 18.97"><defs><style>.cls-1{fill:none;}.cls-2{clip-path:url(#clip-path);}.cls-3{fill:#b99403;}</style><clipPath id="clip-path" transform="translate(0 0)"><rect class="cls-1" x="0.01" width="18.99" height="18.99"/></clipPath></defs><title>icon-services</title><g id="Layer_2" data-name="Layer 2"><g id="Layer_1-2" data-name="Layer 1"><g id="icon-services"><g class="cls-2"><g id="Shape_6" data-name="Shape 6"><path class="cls-3" d="M18.82,3.64,17.42,5A2.44,2.44,0,0,1,14,1.58L15.36.19A4.66,4.66,0,0,0,14.11,0,4.89,4.89,0,0,0,9.22,4.89a4.73,4.73,0,0,0,.19,1.25s0,0-.05,0L.71,14.81a2.44,2.44,0,0,0,3.46,3.45l8.65-8.63a.13.13,0,0,1,0-.05,4.74,4.74,0,0,0,1.26.19A4.89,4.89,0,0,0,19,4.89,4.66,4.66,0,0,0,18.82,3.64ZM2.5,17.09a.61.61,0,1,1,.61-.61A.61.61,0,0,1,2.5,17.09Z" transform="translate(0 0)"/></g></g></g></g></g></svg>