<svg xmlns="http://www.w3.org/2000/svg" xmlns:xlink="http://www.w3.org/1999/xlink" viewBox="0 0 24 18"><defs><style>.cls-1{fill:none;}.cls-2{clip-path:url(#clip-path);}.cls-3{fill:#b99403;}</style><clipPath id="clip-path" transform="translate(0 0)"><rect class="cls-1" width="24" height="18"/></clipPath></defs><title>icon-contact</title><g id="Layer_2" data-name="Layer 2"><g id="Layer_1-2" data-name="Layer 1"><g id="icon-contact"><g class="cls-2"><g id="Shape_7" data-name="Shape 7"><path class="cls-3" d="M.91,1.45.23.76A1.44,1.44,0,0,0,0,1.5v15a1.44,1.44,0,0,0,.23.74L8.47,9Zm2,1,9,9,.93-.94,5.35-5.35,2.79-2.79L22.46,1l.76-.75A1.51,1.51,0,0,0,22.5,0H1.5A1.44,1.44,0,0,0,.76.23l.69.68Zm9.09,10h0l-.06.06L10.46,11l-1-1-.11-.11L9,9.53.76,17.77A1.44,1.44,0,0,0,1.5,18h21a1.49,1.49,0,0,0,.69-.19L14.93,9.55ZM23.76.73,21.58,2.9,15.46,9l8.28,8.28a1.49,1.49,0,0,0,.26-.8V1.5A1.46,1.46,0,0,0,23.76.73Z" transform="translate(0 0)"/></g></g></g></g></g></svg>